<?xml version="1.0" standalone="no"?>
<!DOCTYPE svg PUBLIC "-//W3C//DTD SVG 20010904//EN"
 "http://www.w3.org/TR/2001/REC-SVG-20010904/DTD/svg10.dtd">
<svg version="1.0" xmlns="http://www.w3.org/2000/svg"
 width="72.000000pt" height="72.000000pt" viewBox="0 0 72.000000 72.000000"
 preserveAspectRatio="xMidYMid meet">
<metadata>
Created by potrace 1.14, written by Peter Selinger 2001-2017
</metadata>
<g transform="translate(0.000000,72.000000) scale(0.100000,-0.100000)"
fill="#000000" stroke="none">
<path d="M60 650 c0 -6 16 -39 35 -74 19 -35 35 -69 35 -75 0 -7 -22 -45 -50
-86 l-50 -74 15 -42 c42 -119 176 -217 309 -226 73 -5 72 -6 136 92 l44 67 50
-7 c43 -5 82 -11 94 -14 1 -1 -21 -36 -50 -78 -71 -103 -69 -101 -59 -107 5
-3 39 39 76 94 l67 100 -88 158 c-138 249 -120 228 -206 237 -40 4 -80 8 -89
10 -8 1 -40 6 -70 9 -30 4 -65 8 -79 10 -83 14 -120 16 -120 6z"/>
</g>
</svg>
